PathFileType	4	(X/Y/Z)	F:\MotionCapture\20160217\3\Generated_files\2_Test01-Dynamic.trc
DataRate	CameraRate	NumFrames	NumMarkers	Units	OrigDataRate	OrigDataStartFrame	OrigNumFrames
120.00	120.00	       5	39	mm	120.00	259	       690
Frame#	Time	Top.Head			Front.Head			Rear.Head			R.Shoulder			R.Offset			R.Elbow			R.Wrist			L.Shoulder			L.Elbow			L.Wrist			R.ASIS			L.ASIS			V.Sacral			R.Thigh			R.Knee			R.Shank			R.Ankle			R.Heel			R.Toe			L.Thigh			L.Knee			L.Shank			L.Ankle			L.Heel			L.Toe			R1			R2			R3			R4			R5			R6			R7			L1			L2			L3			L4			L5			L6			L7			V_Mid_ASIS			V_Pelvis_Origin			V_R.Hip_JC			V_L.Hip_JC			V_R.Knee_JC			V_L.Knee_JC			V_R.Ankle_JC			V_L.Ankle_JC			V_Mid_Hip			V_Mid_Shoulder			V_R.Hand			V_L.Hand			V_R.Toe_Offset_Static			V_L.Toe_Offset_Static			V_R.Toe_Offset			V_L.Toe_Offset			
		X1	Y1	Z1	X2	Y2	Z2	X3	Y3	Z3	X4	Y4	Z4	X5	Y5	Z5	X6	Y6	Z6	X7	Y7	Z7	X8	Y8	Z8	X9	Y9	Z9	X10	Y10	Z10	X11	Y11	Z11	X12	Y12	Z12	X13	Y13	Z13	X14	Y14	Z14	X15	Y15	Z15	X16	Y16	Z16	X17	Y17	Z17	X18	Y18	Z18	X19	Y19	Z19	X20	Y20	Z20	X21	Y21	Z21	X22	Y22	Z22	X23	Y23	Z23	X24	Y24	Z24	X25	Y25	Z25	X26	Y26	Z26	X27	Y27	Z27	X28	Y28	Z28	X29	Y29	Z29	X30	Y30	Z30	X31	Y31	Z31	X32	Y32	Z32	X33	Y33	Z33	X34	Y34	Z34	X35	Y35	Z35	X36	Y36	Z36	X37	Y37	Z37	X38	Y38	Z38	X39	Y39	Z39	

259	2.150	1797.56287	148.23450	1674.44983	1700.30444	143.88751	1574.90662	1915.38818	142.40894	1623.08386	1923.26697	333.97009	1380.52588	2049.19458	47.01543	1261.54456	2093.01489	412.85330	1103.36084	2121.11792	435.50018	841.79932	1852.94470	-68.00336	1379.91516	1859.32629	-178.51355	1060.03333	1696.48071	-121.58852	869.74121	1890.87878	261.67303	923.18268	1886.77759	-24.88426	906.01105	2114.51025	124.09370	928.14349	1757.53418	224.57094	603.57086	1791.05920	279.57269	472.89072	1763.39429	205.45805	241.46959	1796.66797	280.70026	68.73730	1864.59241	222.38988	45.86875	1656.64746	269.14209	46.98137	1946.60535	-3.70159	570.07489	2104.22632	-62.14960	454.46927	2176.62866	4.68111	324.67502	2407.35229	-58.96324	170.44409	2456.03394	2.30225	203.25735	2339.51270	-46.68722	48.86985	1610.17468	248.48077	45.04813	1648.94678	231.43741	50.21099	1746.40723	193.48523	57.55234	1823.40967	192.05740	45.97772	1835.62036	266.58646	47.78555	1760.22168	292.71057	42.88575	1695.46094	309.86334	42.82525	2305.54565	-21.87378	38.05475	2329.87329	-6.99278	49.02200	2370.02783	27.76209	119.04561	2426.51685	30.54535	177.19231	2444.62720	-37.93445	179.92555	2409.91089	-69.07929	110.35310	2373.47949	-77.24268	61.69595																																																	2313.12720	374.96631	-37.42372	
260	2.158	1788.12817	150.64323	1676.68372	1691.44788	146.97014	1576.83533	1905.31580	144.90186	1625.44470	1913.60168	336.86581	1382.57422	2039.09241	49.43865	1263.21594	2081.16113	415.80469	1103.97180	2106.89063	437.23227	842.34760	1843.48486	-65.02281	1382.18274	1853.33948	-176.85292	1062.44592	1692.32312	-122.23634	869.29871	1880.28162	264.44046	925.02582	1875.88989	-21.51149	907.76044	2104.02979	125.91497	929.96515	1749.83289	226.56573	601.37238	1784.03735	279.85544	471.64413	1761.14038	205.16307	241.36893	1794.79382	279.99600	68.92836	1864.75586	222.74039	46.21256	1656.15479	268.70590	46.64254	1930.00330	-2.39004	570.87048	2085.49219	-61.21874	453.41299	2160.63281	4.36186	324.24347	2396.20874	-57.62729	178.60590	2443.05273	2.76403	213.89697	2335.81274	-46.28096	52.60609	1609.25610	247.63968	44.57999	1648.47375	230.77881	49.80054	1746.20642	193.40630	56.98926	1823.39758	191.92340	45.81052	1835.43433	266.45480	48.03537	1760.13574	292.45203	43.02442	1694.86780	309.45468	42.89216	2303.63672	-22.05653	37.91159	2325.55786	-6.81180	51.93480	2360.64941	28.21391	125.71204	2415.46069	31.40687	186.86900	2432.57715	-36.45939	189.57753	2402.19873	-69.10167	118.79805	2369.06055	-76.92703	66.82256	
261	2.167	1778.00488	153.11600	1679.04346	1682.46741	149.09123	1578.97290	1895.62390	147.66962	1627.80737	1903.63477	339.12839	1385.29761	2029.02173	51.94230	1265.23767	2068.65161	418.32822	1104.49353	2092.28564	439.28412	842.75366	1834.36548	-62.42117	1384.92383	1846.72437	-175.36612	1065.62878	1689.38733	-122.92474	869.10663	1870.27954	268.04303	926.85712	1864.95813	-18.70241	910.03888	2093.69141	127.87758	932.00110	1743.20398	228.29103	599.72583	1778.29919	280.49567	471.84155	1758.99792	205.42355	241.34753	1794.58057	279.85144	69.13673	1864.81067	222.80684	46.20589	1656.07727	268.77914	46.50113	1912.98389	-1.95765	571.65582	2066.54883	-60.08363	452.11533	2145.30371	5.46272	323.85098	2384.57056	-56.06366	186.28114	2428.56128	4.80180	223.77693	2332.06860	-45.67962	55.26394	1609.27905	247.69249	44.49341	1648.43054	230.70598	49.52982	1746.34290	193.28056	56.64800	1823.33752	191.92200	45.64067	1835.41516	266.45816	48.09953	1760.25037	292.41653	42.99347	1694.92810	309.75974	42.69036	2300.50342	-22.16280	37.29763	2321.62646	-7.30541	54.16603	2352.11011	29.37361	131.83511	2402.12964	33.40424	196.39511	2419.52661	-35.77168	199.79356	2393.49805	-67.91332	127.59293	2363.92432	-75.37973	72.92536	
262	2.175	1768.40930	155.49339	1681.33093	1668.65112	151.37988	1582.05774	1886.20142	150.14174	1630.33289	1893.85254	341.69257	1387.92834	2018.87964	54.16782	1267.38940	2055.87427	421.11023	1105.49817	2076.18457	440.73105	843.27216	1824.25818	-60.09200	1387.07727	1840.62952	-173.58118	1068.75391	1686.81091	-123.93402	869.09161	1860.02063	270.64880	928.15369	1854.44824	-15.40981	912.32501	2083.36450	129.86606	933.63574	1736.21301	229.76158	598.06781	1772.96069	281.15112	471.99335	1757.03491	206.03198	240.68819	1794.59387	279.92969	69.12069	1864.86877	222.79231	46.18108	1656.24841	268.00525	46.17357	1895.23108	-0.87850	572.79590	2046.28882	-58.86682	450.06320	2127.47559	5.44895	324.03201	2371.61890	-54.11226	194.15509	2412.99487	6.83275	234.97462	2324.35059	-46.77323	60.20578	1609.34595	247.89000	44.25378	1648.41785	230.67081	49.28836	1746.48572	193.18733	56.37235	1823.43396	191.92450	45.67272	1835.48059	266.54404	47.96422	1760.33752	292.43063	42.86224	1695.01563	310.19699	42.46240	2297.10425	-23.27767	37.76064	2315.26440	-7.67603	57.99791	2340.42969	30.05450	137.98326	2387.19507	35.58912	205.22090	2405.39600	-32.85133	210.18057	2384.24585	-66.71597	137.29091	2355.34424	-75.83714	81.43276																																																	2342.92334	12.53575	84.30111	
263	2.183	1759.12451	157.66379	1684.03186	1659.35693	153.17693	1584.46692	1876.94080	152.61380	1632.65002	1883.35889	343.87299	1390.30115	2009.18750	56.89938	1269.52393	2043.26221	424.18887	1106.50195	2059.92236	441.98727	843.83728	1815.37634	-57.91729	1389.72253	1834.90149	-172.46848	1071.74792	1684.11499	-125.41503	868.80579	1850.66052	273.37924	929.64911	1844.10205	-12.78700	914.90485	2073.30884	131.85928	935.67877	1729.99329	231.24057	597.72455	1769.85522	282.32214	471.52771	1755.62903	206.34106	240.16602	1794.69604	280.00323	68.90511	1865.03125	222.87920	46.21698	1656.30347	268.03571	46.09915	1877.89172	0.62177	574.68823	2025.46558	-57.38958	448.22906	2109.01489	7.34295	323.78305	2357.29468	-52.41738	201.95879	2395.13037	10.16411	243.81361	2319.34131	-46.20236	62.70373	1609.39331	247.87271	44.16825	1648.58667	230.71356	49.26433	1746.57446	193.22015	56.23252	1823.47888	191.94104	45.64240	1835.62134	266.53510	47.86927	1760.49353	292.57553	42.88359	1695.06384	310.19516	42.40929	2290.63208	-24.23884	37.84055	2308.60571	-8.14705	61.18842	2327.36548	32.01479	144.04059	2370.53345	38.38027	213.29829	2391.30127	-30.52385	219.33142	2372.37061	-64.89261	146.29750	2348.67749	-73.95290	88.92859																																																	2338.57080	13.92598	90.93407	
